<svg width="74" height="25" viewBox="0 0 74 25" fill="none" xmlns="http://www.w3.org/2000/svg">
<path d="M7.42662 2.48547V0H18.8305V16.938H15.5139L15.5166 15.3514H17.3225V1.58658H8.93469V2.48547H14.6475V24.4756H0V2.48547H7.42662ZM2.85369 22.7672H12.9011V16.938H8.67748L2.85369 22.7672ZM7.42662 15.874V5.32832H9.04028V15.2485H12.9011V4.19389H1.74633V21.5624L7.42662 15.8767V15.874Z" fill="#FAB448"/>
<path d="M25.426 10.9762V4.12897H27.2373C27.3971 4.12897 27.5595 4.13439 27.7274 4.14522C27.8925 4.15605 28.055 4.16958 28.212 4.19124C28.3691 4.2129 28.5207 4.23727 28.6669 4.26705C28.8131 4.29413 28.9485 4.32932 29.073 4.37264C29.4385 4.48906 29.758 4.6461 30.0396 4.84374C30.3184 5.04139 30.554 5.27423 30.7408 5.54498C30.9303 5.81302 31.0738 6.11626 31.1713 6.44928C31.2661 6.7823 31.3175 7.1424 31.3175 7.53227C31.3175 7.90049 31.2769 8.24705 31.1957 8.56924C31.1144 8.89143 30.9899 9.18654 30.822 9.45188C30.6542 9.71992 30.4457 9.95276 30.1885 10.1558C29.934 10.3589 29.6335 10.524 29.2869 10.6567C28.9972 10.765 28.6669 10.8462 28.3014 10.9004C27.9332 10.9545 27.5162 10.9816 27.0586 10.9816H25.4314L25.426 10.9762ZM27.1994 9.92839C27.9304 9.92839 28.5044 9.82822 28.916 9.62516C29.2815 9.44646 29.5576 9.18113 29.7445 8.83728C29.9313 8.49343 30.026 8.05211 30.026 7.51603C30.026 7.23716 29.9935 6.98536 29.934 6.75793C29.8717 6.53321 29.7851 6.33286 29.6686 6.15687C29.5522 5.98089 29.4114 5.82927 29.249 5.70472C29.0838 5.57747 28.897 5.47459 28.6885 5.39066C28.4936 5.31485 28.277 5.2607 28.0415 5.2255C27.8032 5.19301 27.5352 5.17406 27.2373 5.17406H26.685V9.92298H27.2021L27.1994 9.92839ZM32.6442 10.9762V4.12897H33.9004V10.9762H32.6442ZM38.8985 9.00514C38.8985 8.83186 38.8578 8.69108 38.7712 8.58278C38.6846 8.47448 38.5708 8.38784 38.4246 8.32015C38.2784 8.24976 38.1133 8.19561 37.9319 8.15229C37.7505 8.11168 37.5582 8.06836 37.3579 8.02774C37.0926 7.96818 36.8381 7.90049 36.5971 7.81927C36.3561 7.73804 36.1422 7.62704 35.9608 7.48625C35.7767 7.34546 35.6305 7.16406 35.5222 6.94746C35.4112 6.72815 35.3571 6.4574 35.3571 6.12709C35.3571 5.76429 35.4193 5.45022 35.5466 5.18218C35.6711 4.91414 35.8444 4.69213 36.061 4.51614C36.2803 4.34015 36.5321 4.21019 36.8272 4.12355C37.1196 4.03692 37.4472 3.9936 37.8128 3.9936C38.1783 3.9936 38.5438 4.02879 38.912 4.09919C39.2802 4.16958 39.597 4.26434 39.865 4.37535V5.45022C39.5103 5.30943 39.1692 5.20926 38.8443 5.14698C38.5194 5.08471 38.2135 5.05222 37.9265 5.05222C37.5149 5.05222 37.1954 5.12803 36.9734 5.27694C36.7487 5.42585 36.6377 5.65328 36.6377 5.95381C36.6377 6.1298 36.6756 6.27059 36.7487 6.3843C36.8218 6.49531 36.9193 6.59007 37.0465 6.66317C37.1711 6.73627 37.3173 6.79584 37.4824 6.84187C37.6449 6.88519 37.8182 6.9258 38.0023 6.9637C38.292 7.02597 38.5681 7.09637 38.8308 7.17759C39.0934 7.25611 39.3289 7.36712 39.532 7.51061C39.7351 7.65682 39.8975 7.84093 40.0166 8.07106C40.1358 8.3012 40.1953 8.59631 40.1953 8.95641C40.1953 9.32463 40.1277 9.64411 39.9923 9.91486C39.8569 10.1829 39.662 10.4076 39.4102 10.5836C39.1611 10.7596 38.8578 10.8896 38.4977 10.9762C38.1377 11.0628 37.7478 11.1034 37.32 11.1034C36.9491 11.1034 36.5808 11.0655 36.2208 10.9924C35.8607 10.9193 35.5628 10.8164 35.3219 10.6838V9.62516C35.6603 9.77136 35.9879 9.87966 36.3101 9.94464C36.6296 10.0123 36.9626 10.0448 37.301 10.0448C37.4987 10.0448 37.6936 10.0286 37.8831 9.99608C38.0727 9.96359 38.246 9.90944 38.3976 9.83093C38.5492 9.75241 38.671 9.64682 38.7631 9.50874C38.8551 9.37336 38.9012 9.20821 38.9012 9.00785L38.8985 9.00514ZM44.9226 5.04951C44.5815 5.04951 44.2647 5.10637 43.9777 5.22009C43.6907 5.33109 43.4443 5.49625 43.2358 5.71014C43.0274 5.92403 42.8676 6.19207 42.7512 6.50614C42.6348 6.82291 42.5752 7.18301 42.5752 7.58913C42.5752 7.99255 42.6267 8.34723 42.735 8.65317C42.8405 8.95912 42.9922 9.21362 43.1898 9.41939C43.3875 9.62516 43.6284 9.77948 43.9127 9.88507C44.197 9.98796 44.5192 10.0394 44.882 10.0394C45.1419 10.0394 45.4072 10.0204 45.6753 9.97984C45.946 9.94193 46.1978 9.88508 46.4334 9.80927V10.8814C46.1951 10.9491 45.9379 11.0006 45.6617 11.0412C45.3829 11.0791 45.0986 11.098 44.8008 11.098C44.2214 11.098 43.7124 11.0168 43.271 10.8489C42.8324 10.6838 42.4642 10.4482 42.1664 10.145C41.8713 9.84176 41.6465 9.48166 41.5003 9.05929C41.3514 8.63693 41.2756 8.17124 41.2756 7.66223C41.2756 7.13969 41.3568 6.65505 41.5139 6.20832C41.6736 5.76158 41.901 5.3717 42.2016 5.04681C42.4994 4.7192 42.873 4.46199 43.3225 4.27247C43.7719 4.08565 44.2782 3.98818 44.8441 3.98547C45.1338 3.98547 45.4072 4.00443 45.6672 4.04233C45.9244 4.08294 46.1599 4.13709 46.3684 4.20749V5.2634C46.0949 5.18218 45.8404 5.12532 45.6049 5.09283C45.372 5.06034 45.1392 5.0441 44.9145 5.0441L44.9226 5.04951ZM52.7797 7.54581C52.7797 7.12886 52.7283 6.76335 52.6254 6.45199C52.5252 6.13792 52.3817 5.878 52.2003 5.67223C52.0216 5.46376 51.805 5.30943 51.5586 5.20655C51.3095 5.10366 51.0388 5.05222 50.741 5.05222C50.4432 5.05222 50.1724 5.10366 49.9233 5.20655C49.6742 5.30943 49.4603 5.46647 49.2816 5.67223C49.1002 5.88071 48.9595 6.14063 48.8566 6.45199C48.7537 6.76606 48.7022 7.12886 48.7022 7.54581C48.7022 7.96276 48.7537 8.32557 48.8566 8.63963C48.9567 8.9537 49.1002 9.21091 49.2816 9.41939C49.4603 9.62516 49.6769 9.78219 49.9233 9.88507C50.1724 9.98796 50.4432 10.0394 50.741 10.0394C51.0388 10.0394 51.3095 9.98796 51.5586 9.88507C51.8077 9.77948 52.0216 9.62516 52.2003 9.41939C52.3817 9.21091 52.5225 8.9537 52.6254 8.63963C52.7283 8.32557 52.7797 7.96276 52.7797 7.54581ZM54.0793 7.54581C54.0793 8.06836 54.0062 8.54758 53.8573 8.98348C53.7084 9.41939 53.4918 9.79573 53.2048 10.1071C52.9205 10.4212 52.5712 10.6675 52.1543 10.8408C51.74 11.0141 51.2689 11.1007 50.741 11.1007C50.213 11.1007 49.7392 11.0141 49.3277 10.8408C48.9107 10.6648 48.5615 10.4212 48.2772 10.1071C47.9929 9.79302 47.7763 9.41939 47.6274 8.98348C47.4785 8.54758 47.4027 8.06836 47.4027 7.54581C47.4027 7.02327 47.4785 6.54404 47.6274 6.10814C47.7763 5.67223 47.9929 5.2986 48.2772 4.98453C48.5615 4.67047 48.9107 4.42409 49.3277 4.25081C49.7419 4.07753 50.213 3.99089 50.741 3.99089C51.2689 3.99089 51.7427 4.07753 52.1543 4.25081C52.5712 4.42679 52.9205 4.67047 53.2048 4.98453C53.4891 5.2986 53.7084 5.67223 53.8573 6.10814C54.0062 6.54404 54.0793 7.02327 54.0793 7.54581ZM57.84 9.30026C57.9645 8.92933 58.0566 8.664 58.1134 8.50426C58.1703 8.34452 58.2894 8.01962 58.4681 7.52957L59.7379 4.12626H61.0646L58.3869 10.9735H57.2633L54.5883 4.12626H55.9231L57.1929 7.52957C57.3716 8.01962 57.4907 8.34723 57.5476 8.50426C57.6044 8.664 57.6965 8.92933 57.821 9.30026H57.8427H57.84ZM63.2387 9.92569H66.6068V10.9735H61.9824V4.12626H66.4227V5.17406H63.2414V6.94746H65.9733V7.99525H63.2414V9.92569H63.2387ZM72.9911 6.18395C72.9911 6.66047 72.8584 7.06388 72.5958 7.39961C72.3331 7.73263 71.9243 7.97901 71.3693 8.13875V8.1577L73.4215 10.9762H71.9135L70.0507 8.32286H69.1898V10.9762H67.9335V4.12897H70.0128C70.3594 4.12897 70.6789 4.14792 70.974 4.18853C71.2718 4.22644 71.5236 4.286 71.7348 4.36452C72.1355 4.51614 72.4469 4.74628 72.6662 5.04681C72.8855 5.35004 72.9938 5.72909 72.9938 6.18666L72.9911 6.18395ZM69.8044 7.27236C70.0913 7.27236 70.3323 7.26153 70.5327 7.23445C70.733 7.20738 70.8982 7.16947 71.0335 7.11803C71.2853 7.02327 71.4586 6.89331 71.5588 6.72544C71.6536 6.56029 71.705 6.37076 71.705 6.15687C71.705 5.97276 71.6671 5.81032 71.5886 5.66682C71.5128 5.52603 71.3828 5.41502 71.1987 5.3338C71.0796 5.27694 70.9307 5.23904 70.7493 5.21196C70.5706 5.18489 70.3458 5.17406 70.0805 5.17406H69.187V7.27236H69.8044Z" fill="white"/>
<path d="M25.426 20.3548V13.5076H26.6823V20.3548H25.426ZM31.8861 16.6889C32.3761 17.3901 32.7768 18.0101 33.0828 18.5516H33.1126C33.072 17.6608 33.0503 17.0138 33.0503 16.6076V13.5076H34.3066V20.3548H32.9907L30.7571 17.2006C30.3645 16.6564 29.9583 16.0228 29.5387 15.3026H29.5089C29.5495 16.1419 29.5712 16.7917 29.5712 17.252V20.3548H28.3149V13.5076H29.6307L31.8861 16.6916V16.6889ZM38.4788 18.6789C38.6033 18.3079 38.6954 18.0426 38.7522 17.8829C38.8091 17.7231 38.9255 17.3982 39.1069 16.9082L40.3767 13.5049H41.7034L39.0257 20.3521H37.9021L35.2271 13.5049H36.5619L37.8317 16.9082C38.0104 17.3982 38.1295 17.7231 38.1864 17.8829C38.2432 18.0426 38.3353 18.3079 38.4598 18.6789H38.4815H38.4788ZM43.8775 19.3043H47.2429V20.3521H42.6185V13.5049H47.0588V14.5527H43.8775V16.3261H46.6094V17.3738H43.8775V19.3043ZM51.9323 18.3837C51.9323 18.2105 51.8917 18.0697 51.805 17.9614C51.7184 17.8531 51.6047 17.7664 51.4585 17.6987C51.3123 17.6284 51.1471 17.5742 50.9657 17.5309C50.7843 17.4903 50.5921 17.447 50.3917 17.4063C50.1264 17.3468 49.8719 17.2791 49.6309 17.1979C49.3899 17.1166 49.1761 17.0056 48.9947 16.8648C48.8105 16.7241 48.6643 16.5427 48.556 16.3261C48.445 16.1067 48.3909 15.836 48.3909 15.5057C48.3909 15.1429 48.4532 14.8288 48.5804 14.5608C48.7049 14.2927 48.8782 14.0707 49.0948 13.8947C49.3141 13.7188 49.5659 13.5888 49.861 13.5022C50.1535 13.4155 50.4811 13.3722 50.8466 13.3722C51.2121 13.3722 51.5776 13.4074 51.9458 13.4778C52.314 13.5482 52.6308 13.6429 52.8988 13.7539V14.8288C52.5442 14.688 52.203 14.5879 51.8781 14.5256C51.5532 14.4633 51.2473 14.4308 50.9603 14.4308C50.5487 14.4308 50.2293 14.5066 50.0072 14.6555C49.7825 14.8072 49.6715 15.0319 49.6715 15.3324C49.6715 15.5084 49.7094 15.6492 49.7825 15.7629C49.8556 15.8739 49.9531 15.9687 50.0804 16.0418C50.2049 16.1149 50.3511 16.1744 50.5163 16.2205C50.6787 16.2638 50.852 16.3044 51.0361 16.3423C51.3258 16.4046 51.602 16.475 51.8646 16.5562C52.1272 16.6347 52.3628 16.7457 52.5658 16.8892C52.7689 17.0354 52.9313 17.2195 53.0505 17.4497C53.1696 17.6798 53.2292 17.9749 53.2292 18.335C53.2292 18.7032 53.1615 19.0227 53.0261 19.2935C52.8907 19.5615 52.6958 19.7862 52.444 19.9622C52.1949 20.1382 51.8917 20.2681 51.5316 20.3548C51.1715 20.4414 50.7816 20.482 50.3538 20.482C49.9829 20.482 49.6147 20.4441 49.2546 20.371C48.8945 20.2979 48.5967 20.195 48.3557 20.0624V19.0038C48.6941 19.15 49.0217 19.2583 49.3439 19.3232C49.6634 19.3882 49.9964 19.4234 50.3349 19.4234C50.5325 19.4234 50.7274 19.4072 50.917 19.3747C51.1065 19.3422 51.2798 19.288 51.4314 19.2095C51.583 19.131 51.7048 19.0254 51.7969 18.8873C51.8889 18.752 51.935 18.5868 51.935 18.3864L51.9323 18.3837ZM57.423 20.3521H56.1668V14.5527H53.9548V13.5049H59.6296V14.5527H57.423V20.3521Z" fill="white"/>
</svg>
