<svg xmlns="http://www.w3.org/2000/svg" width="750" height="250" viewBox="0 0 750 250" fill="none"><path d="M76.4987 25.3819V0H193.966V173.023H159.804L159.824 156.819H178.425V16.2037H92.0392V25.3819H150.868V250H0V25.3819H76.4987ZM29.3923 232.565H132.882V173.023H89.3793L29.3923 232.565ZM76.4987 162.149V54.4198H93.1164V155.75H132.882V42.8168H17.9852V220.229L76.4987 162.149Z" fill="#FBB255"></path><path d="M258.621 115.082V44.5081H277.161C278.806 44.5081 280.468 44.5624 282.167 44.6702C283.865 44.7784 285.51 44.9228 287.119 45.1392C288.728 45.3551 290.266 45.6068 291.768 45.9133C293.27 46.2012 294.664 46.5616 295.916 46.9939C299.652 48.1827 302.942 49.8038 305.821 51.8392C308.681 53.8749 311.077 56.2883 313.008 59.0624C314.956 61.8366 316.423 64.953 317.424 68.3754C318.407 71.7978 318.908 75.5262 318.908 79.5245C318.908 83.3258 318.496 86.8922 317.656 90.2064C316.816 93.5387 315.546 96.5655 313.83 99.303C312.114 102.059 309.968 104.472 307.358 106.562C304.748 108.652 301.672 110.362 298.115 111.714C295.147 112.831 291.768 113.677 288.013 114.235C284.241 114.794 279.985 115.082 275.284 115.082H258.621ZM276.785 104.275C284.277 104.275 290.141 103.23 294.36 101.159C298.097 99.303 300.921 96.5827 302.835 93.0344C304.748 89.4857 305.713 84.9469 305.713 79.4168C305.713 76.5349 305.391 73.9413 304.766 71.6176C304.14 69.2939 303.228 67.2219 302.048 65.4211C300.868 63.6017 299.42 62.053 297.74 60.756C296.041 59.4409 294.128 58.378 292 57.5314C290.016 56.7573 287.799 56.1987 285.367 55.8387C282.918 55.4956 280.182 55.3159 277.143 55.3159H271.493V104.275H276.785ZM332.531 115.082V44.5081H345.404V115.082H332.531ZM396.556 94.7818C396.556 92.9987 396.126 91.5396 395.25 90.4409C394.374 89.3236 393.194 88.4232 391.693 87.7206C390.191 87.0004 388.51 86.4418 386.65 85.9918C384.791 85.5594 382.824 85.1271 380.787 84.7129C378.068 84.1008 375.458 83.3978 372.991 82.5693C370.524 81.7405 368.343 80.5879 366.466 79.1288C364.588 77.6702 363.087 75.8146 361.978 73.5629C360.852 71.3112 360.297 68.5017 360.297 65.115C360.297 61.3862 360.941 58.1439 362.246 55.3698C363.534 52.6137 365.304 50.3267 367.52 48.5068C369.755 46.706 372.348 45.3551 375.351 44.4547C378.337 43.5534 381.699 43.1034 385.435 43.1034C389.171 43.1034 392.926 43.4637 396.699 44.2021C400.471 44.9409 403.707 45.8952 406.442 47.0478V58.1258C402.813 56.6849 399.326 55.6405 395.983 54.9913C392.658 54.3435 389.512 54.0189 386.579 54.0189C382.36 54.0189 379.106 54.7935 376.817 56.3426C374.529 57.8918 373.385 60.2155 373.385 63.3133C373.385 65.115 373.76 66.5922 374.511 67.7629C375.262 68.9155 376.263 69.8702 377.55 70.6267C378.837 71.3831 380.321 71.9952 382.002 72.4642C383.665 72.9142 385.435 73.3288 387.312 73.7249C390.28 74.3555 393.105 75.0939 395.787 75.9224C398.486 76.7331 400.882 77.8857 402.974 79.3629C405.048 80.8581 406.711 82.7672 407.927 85.1448C409.143 87.5228 409.75 90.5668 409.75 94.259C409.75 98.0599 409.052 101.356 407.658 104.13C406.263 106.904 404.279 109.21 401.704 111.029C399.148 112.831 396.037 114.182 392.372 115.064C388.689 115.947 384.684 116.379 380.321 116.379C376.513 116.379 372.759 116.001 369.076 115.244C365.393 114.488 362.336 113.425 359.886 112.056V101.14C363.355 102.653 366.715 103.752 370.006 104.437C373.277 105.121 376.674 105.463 380.161 105.463C382.181 105.463 384.183 105.301 386.132 104.959C388.081 104.635 389.833 104.058 391.388 103.247C392.943 102.437 394.196 101.339 395.143 99.9336C396.09 98.5465 396.556 96.8349 396.556 94.7818ZM458.22 54.0189C454.733 54.0189 451.496 54.5952 448.547 55.7663C445.595 56.9193 443.078 58.612 440.965 60.8275C438.84 63.0435 437.194 65.781 436.013 69.0418C434.815 72.3017 434.224 76.0301 434.224 80.2094C434.224 84.3702 434.763 88.0267 435.853 91.1793C436.927 94.3314 438.483 96.9611 440.517 99.0689C442.539 101.176 445.009 102.779 447.922 103.86C450.836 104.923 454.142 105.463 457.845 105.463C460.509 105.463 463.207 105.265 465.961 104.851C468.733 104.455 471.306 103.86 473.72 103.086V114.128C471.271 114.83 468.642 115.37 465.819 115.785C462.974 116.181 460.043 116.379 457.004 116.379C451.069 116.379 445.849 115.532 441.34 113.821C436.853 112.11 433.082 109.696 430.042 106.58C427.021 103.464 424.732 99.7353 423.213 95.3943C421.693 91.0534 420.924 86.2435 420.924 81.0017C420.924 75.6163 421.746 70.6267 423.373 66.0155C425 61.4043 427.343 57.4055 430.418 54.037C433.474 50.6504 437.302 48.003 441.896 46.0577C446.491 44.1297 451.694 43.1392 457.487 43.1034C460.453 43.1034 463.263 43.3017 465.927 43.6978C468.573 44.1116 470.965 44.6702 473.095 45.4086V56.2883C470.306 55.4422 467.694 54.8659 465.28 54.5232C462.884 54.1814 460.526 54.0189 458.22 54.0189ZM538.655 79.7413C538.655 75.4362 538.138 71.6892 537.082 68.4655C536.043 65.2409 534.599 62.5573 532.737 60.4137C530.896 58.2698 528.698 56.6668 526.159 55.6043C523.621 54.5418 520.832 54.0189 517.793 54.0189C514.75 54.0189 511.961 54.5418 509.422 55.6043C506.884 56.6668 504.685 58.2698 502.845 60.4137C500.983 62.5573 499.539 65.2409 498.5 68.4655C497.444 71.6892 496.927 75.4362 496.927 79.7413C496.927 84.0284 497.444 87.7926 498.5 91.0172C499.539 94.2413 500.983 96.9073 502.845 99.0508C504.685 101.176 506.884 102.779 509.422 103.86C511.961 104.923 514.75 105.463 517.793 105.463C520.832 105.463 523.621 104.923 526.159 103.86C528.698 102.779 530.896 101.176 532.737 99.0508C534.599 96.9073 536.043 94.2413 537.082 91.0172C538.138 87.7926 538.655 84.0284 538.655 79.7413ZM551.957 79.7413C551.957 85.1271 551.207 90.0624 549.685 94.5478C548.168 99.0327 545.931 102.906 543.017 106.13C540.103 109.372 536.53 111.894 532.271 113.695C528.034 115.479 523.207 116.379 517.793 116.379C512.375 116.379 507.547 115.479 503.31 113.695C499.056 111.894 495.478 109.372 492.565 106.13C489.651 102.906 487.431 99.0327 485.914 94.5478C484.392 90.0624 483.625 85.1271 483.625 79.7413C483.625 74.3555 484.392 69.4202 485.914 64.9349C487.431 60.4495 489.651 56.5771 492.565 53.3525C495.478 50.1103 499.056 47.5883 503.31 45.787C507.547 44.0038 512.375 43.1034 517.793 43.1034C523.207 43.1034 528.034 44.0038 532.271 45.787C536.53 47.5883 540.103 50.1103 543.017 53.3525C545.931 56.5771 548.168 60.4495 549.685 64.9349C551.207 69.4202 551.957 74.3555 551.957 79.7413ZM590.47 97.8258C591.754 94.0077 592.685 91.2689 593.276 89.6301C593.849 87.9909 595.065 84.6409 596.905 79.5788L609.901 44.5081H623.474L596.065 115.082H584.552L557.159 44.5081H570.819L583.819 79.5788C585.659 84.6409 586.875 87.9909 587.448 89.6301C588.039 91.2689 588.965 94.0077 590.254 97.8258H590.47ZM645.75 104.275H680.22V115.082H632.875V44.5081H678.323V55.3159H645.75V73.581H673.728V84.3883H645.75V104.275ZM745.603 65.7094C745.603 70.6267 744.241 74.7874 741.543 78.2284C738.845 81.6508 734.659 84.1905 728.991 85.8474V86.0456L750 115.082H734.552L715.478 87.7387H706.664V115.082H693.789V44.5081H715.082C718.625 44.5081 721.896 44.7064 724.935 45.1206C727.974 45.5168 730.565 46.1293 732.728 46.94C736.84 48.5068 740.026 50.8672 742.258 53.965C744.496 57.081 745.603 60.9896 745.603 65.7094ZM712.974 76.9314C715.905 76.9314 718.392 76.8051 720.427 76.5349C722.465 76.2646 724.164 75.8681 725.56 75.3461C728.134 74.3737 729.922 73.0228 730.922 71.3112C731.905 69.6176 732.409 67.6543 732.409 65.4392C732.409 63.5482 732.013 61.8547 731.228 60.3956C730.44 58.9366 729.116 57.8021 727.241 56.9547C726.026 56.3788 724.487 55.9823 722.646 55.7124C720.806 55.4422 718.517 55.3159 715.797 55.3159H706.664V76.9314H712.974Z" fill="#333333"></path><path d="M258.621 209.91V139.336H271.454V209.91H258.621ZM324.555 172.138C329.564 179.36 333.646 185.755 336.783 191.339H337.086C336.676 182.17 336.462 175.487 336.462 171.29V139.336H349.296V209.91H335.874L313.076 177.415C309.065 171.795 304.93 165.275 300.634 157.853H300.331C300.741 166.499 300.955 173.2 300.955 177.938V209.91H288.121V139.336H301.543L324.555 172.138ZM391.845 192.653C393.128 188.835 394.055 186.097 394.643 184.458C395.214 182.819 396.425 179.469 398.262 174.406L411.221 139.336H424.749L397.424 209.91H385.944L358.637 139.336H372.255L385.214 174.406C387.049 179.469 388.262 182.819 388.832 184.458C389.42 186.097 390.347 188.835 391.631 192.653H391.845ZM446.961 199.103H481.327V209.91H434.125V139.336H479.435V150.144H446.961V168.409H474.853V179.216H446.961V199.103ZM529.185 189.609C529.185 187.826 528.759 186.367 527.884 185.269C527.013 184.151 525.836 183.251 524.336 182.548C522.84 181.828 521.164 181.269 519.31 180.819C517.457 180.387 515.496 179.955 513.465 179.541C510.754 178.928 508.151 178.225 505.694 177.397C503.233 176.568 501.06 175.416 499.185 173.956C497.315 172.498 495.819 170.642 494.711 168.391C493.59 166.139 493.039 163.329 493.039 159.943C493.039 156.214 493.677 152.972 494.978 150.197C496.263 147.441 498.03 145.154 500.237 143.334C502.465 141.534 505.052 140.183 508.047 139.282C511.021 138.381 514.375 137.931 518.099 137.931C521.823 137.931 525.569 138.291 529.327 139.03C533.09 139.769 536.315 140.723 539.043 141.875V152.953C535.427 151.512 531.948 150.468 528.616 149.819C525.302 149.171 522.164 148.847 519.241 148.847C515.034 148.847 511.789 149.621 509.509 151.17C507.224 152.719 506.086 155.043 506.086 158.141C506.086 159.943 506.461 161.42 507.207 162.591C507.957 163.743 508.952 164.698 510.237 165.454C511.521 166.211 513 166.823 514.677 167.292C516.336 167.742 518.099 168.156 519.97 168.553C522.931 169.183 525.746 169.922 528.418 170.75C531.112 171.561 533.5 172.713 535.586 174.191C537.651 175.686 539.31 177.595 540.521 179.972C541.737 182.35 542.34 185.394 542.34 189.087C542.34 192.887 541.646 196.184 540.254 198.958C538.866 201.732 536.888 204.038 534.319 205.857C531.771 207.658 528.668 209.009 525.017 209.892C521.345 210.775 517.349 211.207 513 211.207C509.202 211.207 505.461 210.828 501.789 210.072C498.116 209.316 495.069 208.253 492.625 206.883V195.968C496.086 197.481 499.435 198.579 502.715 199.264C505.978 199.949 509.366 200.291 512.84 200.291C514.853 200.291 516.853 200.129 518.793 199.787C520.737 199.462 522.483 198.886 524.034 198.075C525.586 197.265 526.832 196.166 527.776 194.761C528.724 193.374 529.185 191.662 529.185 189.609ZM585.246 209.91H572.414V150.144H549.845V139.336H607.759V150.144H585.246V209.91Z" fill="#333333"></path></svg>